<svg xmlns="http://www.w3.org/2000/svg" version="1.1" xmlns:xlink="http://www.w3.org/1999/xlink" width="200" height="200" x="0" y="0" viewBox="0 0 500 500" style="enable-background:new 0 0 512 512" xml:space="preserve"><g><path d="M428.57 312.68c3.03-3.03 7.94-3.03 10.97 0s3.03 7.94 0 10.97l-20.55 20.55 20.55 20.52c3.03 3.03 3.03 7.94 0 10.97s-7.94 3.03-10.97 0l-20.52-20.55-20.55 20.55c-3.03 3.03-7.94 3.03-10.97 0s-3.03-7.94 0-10.97l20.55-20.52-20.55-20.55c-3.03-3.03-3.03-7.94 0-10.97s7.94-3.03 10.97 0l20.55 20.55zm-20.52-40.03c1.84 0 3.69.08 5.5.23l-3.32-19.7c-.54-3.32 1.11-6.46 3.86-8.02l2.64-1.67-4.79-7.2h-7.77l-4.82 7.2 2.98 1.87c2.72 1.7 4 4.85 3.52 7.82l-3.32 19.7c1.81-.14 3.65-.23 5.52-.23zm21.71 3.37c9.04 2.86 17.32 7.51 24.41 13.49v-36.48c0-4.28 3.46-7.77 7.74-7.77s7.77 3.49 7.77 7.77v54.82a71.025 71.025 0 0 1 9.47 28.57h5.39l-.11-78.32c0-36.79-9.38-42.04-42.89-43.31L427.4 231.6l6.75 10.09c2.27 3.6 1.19 8.36-2.44 10.66l-5.33 3.34zm49.38 75.92c-3.88 36.03-34.41 63.78-71.09 63.78-29.45 0-55.28-17.89-66.16-44.25.03 17.94.06 39.74.06 55.45 0 4.25-3.46 7.71-7.71 7.71v.03H165.8c-4.48 0-7.94-3.57-7.74-8.45.03-15.62.06-37.05.06-54.74-19.36 46.89-80.5 59.5-116.7 23.3-13.15-13.15-21.17-31.35-20.95-51.39H7.77c-4.45 0-7.94-3.57-7.74-8.45.03-16.36.06-39.06.09-57.2v-28.18c0-24.55 4.65-38.89 15.36-47.68 9.47-7.8 22.76-10.23 41.19-11.03l2.13-7.34c-8.87-9.04-14.97-21.77-16.24-35.86l-.57-12.19-4.68-.65a7.733 7.733 0 0 1-6.69-8.19c.51-13.83 4.42-30.05 11.91-41.98C53.84 66.57 71.41 60.73 91 71c20.58-10.94 39.74-5.73 51.76 13.44 6.6 10.52 10.2 24.24 10.6 36.91a7.71 7.71 0 0 1-5.53 7.65l-5.92 1.76c.23 5.53.06 11.08-.48 16.89-1.28 14.09-7.37 26.82-16.24 35.86l2.13 7.34c18.45.79 31.72 3.23 41.19 11.03 10.71 8.79 15.36 23.13 15.36 47.68l.03 37.62c8.16-3.2 18.31-4.51 30.81-5.05l2.13-7.34c-8.87-9.04-15-21.77-16.24-35.86l-.6-12.19-4.65-.65c-4.05-.54-6.97-4.17-6.69-8.19.48-13.83 4.42-30.05 11.91-41.98 11.31-18.06 28.89-23.9 48.47-13.63 20.55-10.94 39.74-5.73 51.76 13.44 6.6 10.52 10.2 24.24 10.6 36.91.11 3.6-2.24 6.69-5.56 7.65l-5.9 1.76c.23 5.53.03 11.08-.48 16.89-1.28 14.09-7.4 26.82-16.24 35.86l2.13 7.34c12.5.54 22.65 1.84 30.81 5.05v-29.06c0-24.55 4.65-38.89 15.36-47.68 9.5-7.8 22.76-10.23 41.19-11.03l2.15-7.34c-8.87-9.04-15-21.77-16.24-35.86l-.6-12.19-4.65-.65c-4.08-.54-6.97-4.17-6.69-8.19.48-13.83 4.42-30.05 11.91-41.98 11.31-18.06 28.88-23.9 48.44-13.63 20.58-10.94 39.77-5.73 51.79 13.44 6.6 10.52 10.18 24.24 10.6 36.91.11 3.6-2.27 6.69-5.56 7.65l-5.9 1.76c.2 5.53.03 11.08-.48 16.89-1.28 14.09-7.4 26.82-16.24 35.86l2.13 7.34c18.43.79 31.69 3.23 41.19 11.03 10.71 8.79 15.36 23.13 15.36 47.68l.06 86.09c0 4.25-3.46 7.71-7.71 7.71v.03h-13.13zm-138.67-31.3a72.82 72.82 0 0 1 5.92-12.78v-54.82c0-4.28 3.49-7.77 7.77-7.77s7.74 3.49 7.74 7.77v36.48c7.09-5.98 15.36-10.63 24.41-13.49l3.4-20.32-5.33-3.34c-3.66-2.38-4.73-7.2-2.3-10.86l6.6-9.89-14.15-16.81c-33.51 1.28-42.89 6.52-42.89 43.31l-.06 40.17c4.44 5.54 7.33 12.8 8.89 22.35zm107.18-16.07c-21.88-21.88-57.34-21.88-79.23 0-21.88 21.88-21.88 57.34 0 79.23 21.88 21.88 57.35 21.88 79.23 0 21.88-21.89 21.88-57.35 0-79.23zm-218.69-16.24 12.78 15.19h16.27c.08 0 .17 0 .25.03l12.78-15.22-1.11-3.83c-8.14 4.03-14.14 4.45-22.34 4.34-6.12-.08-12.05-1.62-17.52-4.34zm1.7 26.02-14.15-16.84c-15.79.6-26.73 2.27-33.19 7.57-8.14 6.66-9.69 20.72-9.69 35.74l-.11 78.32h14.88v-83.4c0-4.28 3.46-7.77 7.74-7.77s7.77 3.49 7.77 7.77v83.4h42.89c-1.42-.48-2.72-1.42-3.69-2.72l-17.92-24.43a7.673 7.673 0 0 1-1.47-5.95l7.99-47.62-5.36-3.34c-3.66-2.38-4.73-7.2-2.3-10.86zm52.86-16.84-14.17 16.84 6.75 10.06c2.27 3.6 1.19 8.36-2.41 10.66l-5.36 3.34 7.94 47.28c.43 2.15-.03 4.48-1.5 6.35l-19.33 24.58h-.03a7.661 7.661 0 0 1-3.52 2.52h44.25v-83.4c0-4.28 3.49-7.77 7.77-7.77s7.74 3.49 7.74 7.77v83.4h14.85l-.11-78.32c-.01-36.79-9.39-42.03-42.87-43.31zm1.05-70.95-12.08 3.57c-5.27 1.56-10.69-2.81-9.81-8.7.88-5.95-.11-14.85-3.97-18.14-1.76-1.53-3.91-1.13-6.38.03-4.73 2.24-7.06-1.22-11.37-.62-2.38.31-3.74 2.44-4.62 4.76-1.39 3.74-1.7 8.79-.96 14.23a7.696 7.696 0 0 1-6.63 8.67c-1.93.28-10.83-1.19-13.29-1.53.06 2.78.23 5.7.48 8.76 1.62 17.94 15.08 36 32.88 35.83l3.43-.03c7.54-.08 14.94-4 20.72-10.29 6.01-6.55 10.2-15.51 11.08-25.51zm-70.95-42.49c-4.85 7.74-7.82 17.94-9.01 27.67l15.02 2.07c.6-12.13 6.12-24.66 19.3-26.45 2.98-.4 6.24-.17 9.78.77 3.54-1.22 6.92-1.53 10.06-1.11 12.33 1.67 18.31 13.69 19.45 25.29l17.26-5.1c-1.7-13.86-9.61-35.69-26.53-35.12-4.54.14-9.75 1.84-15.73 5.56a7.678 7.678 0 0 1-8.28.06c-13.21-8.27-23.32-6.37-31.32 6.36zM246.13 319l-4.82 7.2 2.98 1.87c2.72 1.7 4 4.85 3.51 7.82l-8.31 49.46 10.03 13.69 10.94-13.89-8.25-49.27c-.57-3.32 1.08-6.46 3.83-8.02l2.66-1.67-4.82-7.2h-7.75zm-86.59 1.64c1.56-9.58 4.48-16.81 8.93-22.39l-.11-48.7c0-36.79-9.35-42.04-42.86-43.31l-14.17 16.84 6.75 10.06c2.27 3.6 1.19 8.36-2.41 10.66l-5.36 3.34 4.93 29.4c8.45 2.89 16.19 7.34 22.88 12.98v-45.04c0-4.28 3.49-7.77 7.77-7.77s7.74 3.49 7.74 7.77v63.38c2.36 4.02 4.35 8.3 5.91 12.78zm-47-7.96a7.756 7.756 0 0 1 10.97 0c3 3.03 3 7.94 0 10.97l-20.55 20.55 20.55 20.52c3 3.03 3 7.94 0 10.97a7.756 7.756 0 0 1-10.97 0l-20.55-20.55-20.55 20.55c-3.03 3.03-7.94 3.03-10.94 0a7.756 7.756 0 0 1 0-10.97l20.52-20.52-20.52-20.55a7.756 7.756 0 0 1 0-10.97c3-3.03 7.91-3.03 10.94 0l20.55 20.55zm-20.55-40.03c2.35 0 4.68.11 6.97.34l-4.76-28.37c-.57-3.32 1.08-6.46 3.83-8.02l2.66-1.67-4.82-7.17H88.1l-4.82 7.17 2.98 1.87a7.72 7.72 0 0 1 3.52 7.82l-4.76 28.37c2.29-.23 4.61-.34 6.97-.34zm-69.65 55.22c1.64-7.14 4.39-13.86 8.02-20.01v-63.38c0-4.28 3.46-7.77 7.74-7.77s7.77 3.49 7.77 7.77v45.04c6.69-5.64 14.43-10.09 22.88-12.98l4.93-29.4-5.36-3.34c-3.63-2.38-4.73-7.2-2.3-10.86l6.63-9.86-14.17-16.84c-33.51 1.28-42.86 6.52-42.86 43.31l-.14 78.32zm109.28-23.3c-21.88-21.88-57.37-21.88-79.23 0-21.88 21.88-21.88 57.34 0 79.23 21.86 21.88 57.35 21.88 79.23 0 21.85-21.89 21.85-57.35 0-79.23zm255.37-98.96 12.76 15.19h16.27c.11 0 .2 0 .28.03l12.78-15.22-1.11-3.83c-8.14 4.03-14.15 4.45-22.37 4.34-6.09-.08-12.02-1.62-17.52-4.34zm55.61-61.76-12.08 3.57c-5.27 1.56-10.69-2.81-9.81-8.7.88-5.95-.11-14.85-3.97-18.14-1.79-1.53-3.91-1.13-6.41.03-4.71 2.24-7.03-1.22-11.34-.62-2.41.31-3.77 2.44-4.62 4.76-1.39 3.74-1.7 8.79-.96 14.23.57 4.22-2.41 8.11-6.63 8.67-1.96.26-10.83-1.19-13.29-1.53.06 2.78.23 5.7.48 8.76 1.62 17.89 14.94 35.92 32.85 35.8h3.46c7.54-.08 14.94-4 20.72-10.32 6.01-6.52 10.18-15.48 11.08-25.48zm-70.95-42.5c-4.85 7.74-7.82 17.94-9.01 27.67l15.02 2.07c.6-12.13 6.12-24.66 19.28-26.45 3-.4 6.26-.17 9.81.77 3.54-1.22 6.92-1.53 10.06-1.11 12.33 1.67 18.31 13.69 19.45 25.28l17.26-5.1c-1.7-13.86-9.61-35.69-26.53-35.12-4.54.14-9.75 1.84-15.73 5.56a7.678 7.678 0 0 1-8.28.06c-13.21-8.25-23.33-6.35-31.33 6.37zm-300.72 95.7 12.78 15.19h16.27c.08 0 .17.03.28.03l12.78-15.22-1.13-3.83c-8.11 4.02-14.15 4.45-22.34 4.34-6.09-.08-12.05-1.62-17.52-4.34zm55.64-61.77-12.1 3.57c-5.27 1.56-10.66-2.78-9.81-8.67.88-5.98-.11-14.88-3.97-18.17-1.76-1.53-3.91-1.13-6.38.06-4.71 2.21-7.06-1.25-11.37-.65-2.38.31-3.74 2.44-4.62 4.76-1.39 3.74-1.7 8.79-.96 14.23a7.696 7.696 0 0 1-6.63 8.67c-1.93.28-10.83-1.19-13.29-1.53.06 2.81.23 5.7.51 8.76 1.59 17.83 14.88 35.92 32.85 35.83l3.43-.03c7.54-.09 14.94-4 20.72-10.29 6.01-6.55 10.2-15.51 11.11-25.51zM55.62 92.79c-4.88 7.74-7.85 17.94-9.01 27.67l15 2.07c.6-12.13 6.12-24.66 19.3-26.45 2.98-.4 6.24-.17 9.78.77 3.54-1.22 6.94-1.53 10.09-1.11 12.33 1.67 18.28 13.69 19.42 25.28l17.26-5.1c-1.7-13.86-9.61-35.66-26.53-35.12-4.51.14-9.75 1.84-15.73 5.56-2.41 1.59-5.64 1.7-8.28.06-13.19-8.25-23.34-6.35-31.3 6.37z" fill="#ffab00" opacity="1" data-original="#000000"></path></g></svg>